<svg width="65" height="64" viewBox="0 0 65 64" fill="none" xmlns="http://www.w3.org/2000/svg">
<path fill-rule="evenodd" clip-rule="evenodd" d="M11.7627 55.604L10.0267 9.37601C9.97207 7.84935 11.1454 6.55735 12.6694 6.46401L43.4801 4.53735L45.8334 5.33335L48.8934 4.19868L51.9814 4.00535C53.5321 3.90668 54.8694 5.08401 54.9694 6.63468C54.9734 6.69468 54.9747 6.75601 54.9747 6.81735V57.1867C54.9734 58.7427 53.7107 60.0027 52.1547 60.0013C52.1134 60.0013 52.0721 60 52.0321 59.9987L14.4507 58.3107C12.9867 58.2453 11.8187 57.0693 11.7627 55.604Z" fill="#FF4081"/>
<path fill-rule="evenodd" clip-rule="evenodd" d="M48.8907 4.19867L43.4814 4.53467L43.2187 10.8827C43.2094 11.1147 43.3894 11.3093 43.6214 11.32C43.7187 11.324 43.8134 11.2947 43.8907 11.236L46.3547 9.36534L48.4374 11.0067C48.6187 11.1507 48.884 11.12 49.0267 10.9387C49.088 10.86 49.12 10.7627 49.1174 10.6627L48.8933 4.2L48.8907 4.19867ZM44.68 25.4507C43.692 26.22 36.3107 26.744 36.3107 25.6493C36.468 21.4693 34.5974 21.2867 33.556 21.2867C32.5707 21.2867 30.9067 21.584 30.9067 23.824C30.9067 26.1053 33.3373 27.3933 36.1907 28.9053C40.2427 31.0533 45.1507 33.6547 45.1507 40.1947C45.1507 46.4667 40.0547 49.928 33.5587 49.928C26.8534 49.928 20.992 47.2147 21.6533 37.8093C21.9133 36.7067 30.44 36.9693 30.44 37.8093C30.3334 41.6907 31.2187 42.832 33.4534 42.832C35.1694 42.832 35.948 41.8853 35.948 40.2947C35.948 37.884 33.4174 36.4613 30.5027 34.8267C26.5574 32.612 21.9147 30.0053 21.9147 24.0213C21.9147 18.052 26.02 14.0707 33.3493 14.0707C40.6787 14.0707 44.68 17.992 44.68 25.4507Z" fill="white"/>
</svg>
