<svg width="44" height="64" viewBox="0 0 44 64" fill="none" xmlns="http://www.w3.org/2000/svg">
<g clip-path="url(#clip0_1_1890)">
<path d="M22 32C22 29.171 23.1238 26.4579 25.1242 24.4575C27.1246 22.4571 29.8377 21.3333 32.6667 21.3333C35.4956 21.3333 38.2087 22.4571 40.2091 24.4575C42.2095 26.4579 43.3333 29.171 43.3333 32C43.3333 34.829 42.2095 37.5421 40.2091 39.5425C38.2087 41.5428 35.4956 42.6666 32.6667 42.6666C29.8377 42.6666 27.1246 41.5428 25.1242 39.5425C23.1238 37.5421 22 34.829 22 32Z" fill="#1ABCFE"/>
<path d="M0.666626 53.3334C0.666626 50.5044 1.79043 47.7913 3.79082 45.7909C5.79121 43.7905 8.50432 42.6667 11.3333 42.6667H22V53.3334C22 56.1623 20.8762 58.8754 18.8758 60.8758C16.8754 62.8762 14.1623 64 11.3333 64C8.50432 64 5.79121 62.8762 3.79082 60.8758C1.79043 58.8754 0.666626 56.1623 0.666626 53.3334Z" fill="#0ACF83"/>
<path d="M22 0V21.3333H32.6667C35.4956 21.3333 38.2087 20.2095 40.2091 18.2091C42.2095 16.2087 43.3333 13.4956 43.3333 10.6667C43.3333 7.83769 42.2095 5.12458 40.2091 3.12419C38.2087 1.12381 35.4956 0 32.6667 0L22 0Z" fill="#FF7262"/>
<path d="M0.666626 10.6667C0.666626 13.4956 1.79043 16.2087 3.79082 18.2091C5.79121 20.2095 8.50432 21.3333 11.3333 21.3333H22V0H11.3333C8.50432 0 5.79121 1.12381 3.79082 3.12419C1.79043 5.12458 0.666626 7.83769 0.666626 10.6667Z" fill="#F24E1E"/>
<path d="M0.666626 32C0.666626 34.829 1.79043 37.5421 3.79082 39.5425C5.79121 41.5428 8.50432 42.6666 11.3333 42.6666H22V21.3333H11.3333C8.50432 21.3333 5.79121 22.4571 3.79082 24.4575C1.79043 26.4579 0.666626 29.171 0.666626 32Z" fill="#A259FF"/>
</g>
<defs>
<clipPath id="clip0_1_1890">
<rect width="42.6667" height="64" fill="white" transform="translate(0.666626)"/>
</clipPath>
</defs>
</svg>
