<svg width="65" height="64" viewBox="0 0 65 64" fill="none" xmlns="http://www.w3.org/2000/svg">
<path d="M53.7924 34.608C51.7417 34.6187 49.9657 35.1107 48.4777 35.8454C47.9337 34.7587 47.3817 33.8027 47.2897 33.092C47.1817 32.2627 47.0564 31.7667 47.187 30.7787C47.3177 29.7907 47.8897 28.3907 47.8817 28.2854C47.8737 28.18 47.7537 27.6774 46.571 27.668C45.3884 27.66 44.3764 27.896 44.2577 28.208C44.139 28.52 43.911 29.2227 43.7697 29.956C43.563 31.028 41.4084 34.8534 40.1857 36.8534C39.7857 36.072 39.4457 35.384 39.375 34.84C39.267 34.0107 39.1417 33.5147 39.2724 32.5267C39.403 31.5387 39.975 30.1387 39.967 30.0334C39.959 29.928 39.839 29.4254 38.6564 29.416C37.4737 29.408 36.4617 29.644 36.343 29.956C36.2244 30.268 36.0964 30.9974 35.855 31.704C35.6124 32.4094 32.7497 38.7894 31.999 40.444C31.6164 41.2867 31.2844 41.964 31.0497 42.4254L31.0484 42.4227C31.0484 42.4227 31.0337 42.4534 31.0097 42.5054C30.8084 42.8987 30.6897 43.116 30.6897 43.116C30.6897 43.116 30.691 43.1187 30.6937 43.124C30.5337 43.4134 30.363 43.6814 30.279 43.6814C30.2204 43.6814 30.1017 42.912 30.3044 41.856C30.731 39.6427 31.7537 36.192 31.7444 36.072C31.739 36.0107 31.935 35.4094 31.0764 35.0947C30.2417 34.7894 29.9444 35.2987 29.8684 35.3C29.795 35.3014 29.7404 35.48 29.7404 35.48C29.7404 35.48 30.6697 31.5987 27.967 31.5987C26.2764 31.5987 23.935 33.448 22.7817 35.124C22.0537 35.5214 20.495 36.372 18.843 37.28C18.2084 37.6294 17.5604 37.9854 16.9457 38.324C16.9044 38.2774 16.8617 38.232 16.819 38.1854C13.5404 34.688 7.4817 32.2147 7.7377 27.512C7.83103 25.8027 8.4257 21.3014 19.3817 15.8427C28.3564 11.3707 35.5417 12.6014 36.783 15.328C38.5564 19.2254 32.943 26.4667 23.623 27.512C20.0724 27.9107 18.2017 26.5334 17.7364 26.0214C17.247 25.4814 17.1737 25.4574 16.991 25.5587C16.6937 25.724 16.8817 26.2 16.991 26.484C17.2697 27.208 18.411 28.492 20.3577 29.132C22.071 29.6947 26.2404 30.0027 31.2817 28.052C36.9297 25.868 41.339 19.7907 40.043 14.712C38.7257 9.5467 30.1604 7.84803 22.0537 10.728C17.223 12.4427 12.0004 15.1334 8.24436 18.6454C3.77903 22.8214 3.06703 26.4574 3.36036 27.976C4.40303 33.3734 11.8417 36.888 14.8204 39.492C14.6737 39.5734 14.535 39.6494 14.4097 39.7187C12.9164 40.4574 7.2457 43.4254 5.82703 46.56C4.2177 50.116 6.08303 52.668 7.3177 53.012C11.143 54.076 15.0684 52.1614 17.179 49.0147C19.2884 45.8694 19.031 41.772 18.063 39.9027C18.051 39.88 18.0377 39.8574 18.0257 39.8334C18.411 39.6054 18.8044 39.3734 19.1937 39.144C19.9537 38.6974 20.7004 38.2814 21.347 37.9294C20.9844 38.9214 20.719 40.112 20.5817 41.8307C20.419 43.8494 21.247 46.4587 22.3297 47.4854C22.807 47.9374 23.3804 47.948 23.743 47.948C25.003 47.948 25.5777 46.9 26.211 45.66C26.987 44.14 27.6764 42.3694 27.6764 42.3694C27.6764 42.3694 26.8124 47.1507 29.167 47.1507C30.0257 47.1507 30.8884 46.0374 31.2737 45.4707C31.275 45.4774 31.275 45.48 31.275 45.48C31.275 45.48 31.2977 45.4427 31.3417 45.3694C31.431 45.2334 31.4817 45.1467 31.4817 45.1467C31.4817 45.1467 31.483 45.1374 31.4857 45.1214C31.831 44.5227 32.5964 43.1574 33.743 40.9054C35.2257 37.996 36.647 34.3507 36.647 34.3507C36.647 34.3507 36.779 35.2414 37.2124 36.716C37.467 37.5827 38.0084 38.5414 38.4364 39.4614C38.0924 39.9387 37.8817 40.212 37.8817 40.212C37.8817 40.212 37.883 40.2174 37.887 40.2267C37.6124 40.592 37.3044 40.9854 36.9817 41.3694C35.811 42.7627 34.4177 44.3547 34.231 44.8134C34.011 45.3547 34.063 45.752 34.4884 46.0734C34.799 46.3067 35.351 46.344 35.9284 46.3054C36.9804 46.2347 37.719 45.9734 38.0844 45.8147C38.6537 45.6134 39.3164 45.2974 39.9377 44.84C41.0857 43.996 41.7777 42.7894 41.711 41.1894C41.6737 40.308 41.3937 39.4347 41.0377 38.6107C41.1417 38.4614 41.2457 38.3094 41.351 38.1574C43.1604 35.512 44.5644 32.6054 44.5644 32.6054C44.5644 32.6054 44.6964 33.496 45.1297 34.9707C45.3484 35.716 45.7817 36.5307 46.171 37.328C44.4697 38.7107 43.415 40.3174 43.0484 41.3707C42.371 43.32 42.9017 44.2027 43.8964 44.404C44.347 44.4947 44.9844 44.288 45.463 44.0854C46.059 43.888 46.775 43.5587 47.4444 43.0667C48.5924 42.2227 49.6964 41.0414 49.6297 39.4427C49.599 38.7147 49.4017 37.992 49.1337 37.2987C50.5764 36.6974 52.443 36.364 54.8217 36.6414C59.9244 37.2374 60.9244 40.4227 60.7337 41.756C60.5417 43.0894 59.4724 43.8227 59.1137 44.044C58.7564 44.2654 58.647 44.3427 58.6764 44.5067C58.7204 44.7454 58.8857 44.7374 59.191 44.6854C59.611 44.6147 61.8697 43.6014 61.967 41.14C62.0884 38.012 59.095 34.58 53.7924 34.608ZM14.463 47.8667C12.7724 49.7107 10.4124 50.4067 9.39903 49.82C8.3057 49.1867 8.73903 46.472 10.8124 44.5147C12.0764 43.3227 13.7084 42.224 14.791 41.548C15.0377 41.4 15.399 41.1827 15.839 40.9187C15.9124 40.8774 15.9537 40.8547 15.9537 40.8547L15.9524 40.852C16.0377 40.8014 16.1244 40.7494 16.2137 40.6947C16.9697 43.48 16.2377 45.932 14.463 47.8667ZM26.7764 39.4974C26.1884 40.932 24.9564 44.604 24.2057 44.4067C23.5617 44.2374 23.1697 41.4467 24.0777 38.7C24.5337 37.3174 25.5097 35.6654 26.083 35.024C27.0057 33.992 28.0217 33.6547 28.2684 34.0734C28.5817 34.6067 27.1457 38.5974 26.7764 39.4974ZM36.9484 44.3507C36.699 44.4814 36.4697 44.5627 36.3644 44.5C36.2857 44.4534 36.467 44.2814 36.467 44.2814C36.467 44.2814 37.739 42.912 38.2404 42.2894C38.5324 41.9267 38.8697 41.496 39.2377 41.016C39.2404 41.064 39.2417 41.112 39.2417 41.1587C39.239 42.7987 37.655 43.9054 36.9484 44.3507ZM44.7844 42.564C44.5977 42.432 44.6297 42.004 45.2417 40.6694C45.4817 40.1454 46.031 39.264 46.983 38.4214C47.0937 38.768 47.1604 39.1 47.159 39.4094C47.147 41.4734 45.675 42.244 44.7844 42.564Z" fill="#F06292"/>
</svg>
