<svg width="67" height="64" viewBox="0 0 67 64" fill="none" xmlns="http://www.w3.org/2000/svg">
<path fill-rule="evenodd" clip-rule="evenodd" d="M38.2875 1.06171C37.8357 1.06171 37.4162 1.1588 37.029 1.28824C37.8519 1.83839 38.3036 2.56654 38.5295 3.39177C38.5457 3.50503 38.5779 3.58594 38.5941 3.6992C38.6103 3.79629 38.6263 3.89338 38.6263 3.99046C38.6909 5.41439 38.2552 5.59238 37.9487 6.43379C37.4808 7.51792 37.6098 8.68294 38.1746 9.62144C38.223 9.73471 38.2875 9.86415 38.3682 9.97742C37.7551 5.88364 41.1595 5.26876 41.7888 3.99046C41.8372 2.87398 40.9175 2.12965 40.1914 1.61186C39.4976 1.19115 38.8684 1.06171 38.2875 1.06171ZM43.4184 1.98402C43.3539 2.35618 43.4023 2.2591 43.3862 2.45327C43.3701 2.58272 43.3701 2.74453 43.354 2.87397C43.3217 3.00342 43.2894 3.13287 43.241 3.26232C43.2088 3.39177 43.1603 3.52122 43.1119 3.65066C43.0474 3.78011 42.999 3.89338 42.9344 4.02282C42.886 4.08757 42.8538 4.15227 42.8054 4.217C42.7731 4.26554 42.7408 4.31408 42.7086 4.36263C42.6279 4.4759 42.5472 4.58916 42.4665 4.68624C42.3697 4.78333 42.289 4.89659 42.1761 4.97751V4.99371C42.0793 5.07461 41.9825 5.1717 41.8695 5.2526C41.5307 5.51149 41.1435 5.70567 40.7885 5.94838C40.6755 6.02928 40.5626 6.09401 40.4658 6.1911C40.3528 6.272 40.256 6.3529 40.1592 6.44999C40.0463 6.54708 39.9656 6.64416 39.8688 6.75743C39.7881 6.85452 39.6913 6.96778 39.6268 7.08105C39.5461 7.19431 39.4654 7.30758 39.4009 7.42085C39.3363 7.55029 39.2879 7.66357 39.2234 7.79301C39.175 7.92245 39.1266 8.03573 39.0943 8.16517C39.0459 8.3108 39.0136 8.44025 38.9814 8.5697C38.9652 8.63445 38.9652 8.71533 38.9491 8.78005C38.9329 8.8448 38.9329 8.9095 38.9169 8.97423C38.9169 9.10367 38.9007 9.2493 38.9007 9.37875C38.9007 9.47583 38.9007 9.57292 38.9169 9.67001C38.9169 9.79945 38.933 9.9289 38.9653 10.0745C38.9814 10.204 39.0137 10.3334 39.046 10.4629C39.0944 10.5923 39.1266 10.7218 39.175 10.8512C39.2073 10.9321 39.2557 11.013 39.288 11.0777L35.5769 9.63764C34.9477 9.45965 34.3345 9.29784 33.7053 9.15221C33.3664 9.07131 33.0276 8.9904 32.6888 8.9095C31.7206 8.71533 30.7364 8.5697 29.7522 8.47262C29.7199 8.47262 29.7038 8.45641 29.6715 8.45641C28.7034 8.35933 27.7514 8.31079 26.7833 8.31079C26.0734 8.31079 25.3634 8.34312 24.6696 8.39169C23.6854 8.45644 22.7012 8.58586 21.7169 8.74767C21.4749 8.78001 21.2329 8.82858 20.9908 8.87712C20.4907 8.9742 20.0066 9.08747 19.5387 9.20074C19.2967 9.26549 19.0546 9.33019 18.8126 9.39491C18.5706 9.49199 18.3447 9.60526 18.1188 9.70235C17.9413 9.78325 17.7638 9.86416 17.5864 9.94506C17.5541 9.96127 17.5218 9.96127 17.5057 9.9774C17.3443 10.0583 17.1991 10.123 17.0539 10.2039C17.0055 10.2201 16.9732 10.2363 16.941 10.2525C16.7635 10.3334 16.586 10.4305 16.4408 10.5114C16.3278 10.5599 16.2149 10.6246 16.1181 10.6732C16.0697 10.7055 16.0051 10.7379 15.9729 10.7541C15.8276 10.835 15.6824 10.9159 15.5533 10.9968C15.4081 11.0777 15.279 11.1586 15.1661 11.2395C15.0532 11.3204 14.9402 11.3851 14.8434 11.466C14.8272 11.4822 14.8112 11.4822 14.795 11.4984C14.6982 11.5631 14.5852 11.644 14.4884 11.7249C14.4884 11.7249 14.4723 11.7411 14.4562 11.7573C14.3755 11.822 14.2948 11.8867 14.2142 11.9514C14.1819 11.9676 14.1496 12 14.1174 12.0162C14.0367 12.0809 13.956 12.1618 13.8753 12.2265C13.8592 12.2589 13.8269 12.2751 13.8108 12.2913C13.714 12.3884 13.6171 12.4693 13.5203 12.5664C13.5042 12.5664 13.5042 12.5826 13.4881 12.5987C13.3913 12.6796 13.2945 12.7767 13.1977 12.8738C13.1815 12.89 13.1815 12.9061 13.1654 12.9061C13.0847 12.987 13.0041 13.0679 12.9234 13.165C12.8911 13.1973 12.8427 13.2297 12.8104 13.2621C12.7298 13.3592 12.633 13.4563 12.5361 13.5533C12.52 13.5857 12.4877 13.6019 12.4716 13.6342C12.3425 13.7637 12.2296 13.8931 12.1005 14.0226C12.0843 14.0388 12.0682 14.0549 12.0521 14.0711C11.7939 14.3462 11.5196 14.6213 11.2292 14.864C10.9388 15.1229 10.6322 15.3656 10.3256 15.576C10.0029 15.8025 9.69635 15.9967 9.35752 16.1908C9.03481 16.3688 8.69598 16.5306 8.34101 16.6763C8.00217 16.8219 7.6472 16.9514 7.29223 17.0646C6.61456 17.2102 5.92075 17.4853 5.32376 17.5339C5.19468 17.5339 5.04946 17.5662 4.92038 17.5824C4.77517 17.6147 4.64609 17.6472 4.51701 17.6795C4.38793 17.728 4.25884 17.7766 4.12977 17.8251C4.00069 17.8737 3.87161 17.9384 3.74253 18.0031C3.62958 18.084 3.5005 18.1487 3.38755 18.2296C3.27461 18.3105 3.16166 18.4076 3.06485 18.5047C2.95191 18.5856 2.83896 18.6989 2.74215 18.796C2.64534 18.9092 2.54853 19.0063 2.46786 19.1196C2.38718 19.249 2.29037 19.3623 2.22583 19.4918C2.14516 19.605 2.06448 19.7345 1.99994 19.8639C1.93537 20.0096 1.87086 20.139 1.82246 20.2846C1.77405 20.4141 1.72564 20.5597 1.67724 20.7053C1.64499 20.8348 1.61267 20.9642 1.59657 21.0937C1.59657 21.1099 1.58041 21.126 1.58041 21.1422C1.54816 21.2878 1.54816 21.482 1.532 21.5791C1.51584 21.6924 1.49976 21.7895 1.49976 21.9027C1.49976 21.9675 1.49976 22.0484 1.51592 22.1131C1.53208 22.2263 1.54816 22.3234 1.58048 22.4205C1.61273 22.5176 1.64505 22.6147 1.69342 22.7118V22.728C1.74183 22.8251 1.80637 22.9222 1.87091 23.0192C1.93547 23.1163 1.99999 23.2134 2.08067 23.3105C2.16134 23.3914 2.25815 23.4885 2.35496 23.5694C2.45177 23.6665 2.54858 23.7474 2.66152 23.8283C3.04877 24.1681 3.14558 24.2814 3.64576 24.5402C3.72644 24.5888 3.80712 24.6212 3.90393 24.6697C3.92009 24.6697 3.93617 24.6859 3.95233 24.6859C3.95233 24.7182 3.95233 24.7344 3.9685 24.7668C3.98466 24.8963 4.0169 25.0257 4.04917 25.1552C4.08141 25.3008 4.12985 25.4302 4.17826 25.5435C4.22666 25.6406 4.25893 25.7377 4.30733 25.8348C4.32349 25.8671 4.33958 25.8995 4.35574 25.9157C4.42031 26.0451 4.48482 26.1584 4.54935 26.2716C4.63004 26.3849 4.71071 26.4982 4.79138 26.6114C4.87206 26.7085 4.96887 26.8218 5.06568 26.9189C5.16249 27.016 5.2593 27.0969 5.37225 27.1939C5.37225 27.1939 5.38841 27.2102 5.40449 27.2102C5.5013 27.2911 5.59811 27.372 5.69493 27.4367C5.80787 27.5176 5.92081 27.5823 6.04989 27.6471C6.16284 27.7118 6.29192 27.7765 6.421 27.8251C6.51781 27.8736 6.63075 27.906 6.7437 27.9383C6.75986 27.9545 6.77594 27.9545 6.80827 27.9707C6.87283 27.9869 6.95347 28.003 7.01802 28.0192C6.96961 28.893 6.95345 29.7182 7.08258 30.0095C7.22779 30.3331 7.93774 29.346 8.64768 28.2134C8.55087 29.3299 8.48633 30.6405 8.64768 31.0289C8.82516 31.4334 9.79327 30.1713 10.6323 28.7797C22.072 26.126 32.5114 34.0547 33.6086 45.2519C33.3988 43.5044 31.2529 42.5335 30.2686 42.7762C29.7846 43.9736 28.9617 45.5108 27.6386 46.4655C27.7516 45.3976 27.7032 44.2973 27.4773 43.2293C27.1223 44.718 26.4285 46.1095 25.4765 47.3069C23.9437 47.4202 22.4109 46.6759 21.6041 45.5594C21.5395 45.5108 21.5234 45.4137 21.475 45.349C21.4266 45.2357 21.3782 45.1225 21.3459 45.0092C21.2975 44.896 21.2653 44.7827 21.2491 44.6694C21.233 44.5561 21.233 44.4429 21.233 44.3134C21.233 44.2325 21.233 44.1516 21.233 44.0707C21.2491 43.9575 21.2814 43.8442 21.3136 43.7309C21.3459 43.6177 21.3782 43.5044 21.4266 43.3911C21.4912 43.2779 21.5395 43.1646 21.6202 43.0513C21.8945 42.2746 21.8945 41.6436 21.3943 41.2714C21.2975 41.2067 21.2007 41.1581 21.0878 41.1096C21.0232 41.0934 20.9425 41.0611 20.878 41.0449C20.8296 41.0287 20.7973 41.0125 20.7489 40.9963C20.636 40.964 20.523 40.9316 20.4101 40.9154C20.2971 40.8831 20.1842 40.8669 20.0713 40.8669C19.9583 40.8506 19.8292 40.8345 19.7163 40.8345C19.6356 40.8345 19.5549 40.8507 19.4743 40.8507C19.3452 40.8507 19.2322 40.867 19.1193 40.8993C19.0063 40.9155 18.8934 40.9316 18.7804 40.964C18.6675 40.9964 18.5546 41.0288 18.4416 41.0773C18.3287 41.1258 18.2319 41.1744 18.1189 41.2229C18.0221 41.2715 17.9253 41.3362 17.8123 41.3847C14.0529 43.8442 16.2957 49.6047 18.8611 51.2713C17.893 51.4493 16.9088 51.6596 16.6345 51.87C16.6183 51.8862 16.6022 51.9023 16.6022 51.9023C17.2961 52.323 18.0221 52.679 18.7805 52.9865C19.8131 53.3263 20.9103 53.6337 21.3944 53.7631V53.7793C22.7336 54.0544 24.0889 54.1515 25.4604 54.0706C32.6082 53.569 38.4652 48.116 39.5301 40.9317C39.5624 41.0773 39.5947 41.2067 39.6269 41.3524C39.6754 41.6436 39.7399 41.9511 39.7722 42.2585V42.2747C39.8044 42.4203 39.8206 42.566 39.8367 42.6954V42.7602C39.8529 42.9058 39.869 43.0514 39.869 43.1809C39.8851 43.3589 39.9012 43.5369 39.9012 43.7149V43.9737C39.9012 44.0547 39.9174 44.1517 39.9174 44.2326C39.9174 44.3297 39.9012 44.4268 39.9012 44.5239V44.7504C39.9012 44.8637 39.885 44.9608 39.885 45.074C39.885 45.1388 39.885 45.2035 39.8689 45.2844C39.8689 45.3977 39.8527 45.5109 39.8527 45.6404C39.8365 45.6889 39.8365 45.7375 39.8365 45.786C39.8204 45.9155 39.8043 46.0287 39.7881 46.1582C39.7881 46.2067 39.7881 46.2553 39.772 46.3038C39.7558 46.4656 39.7236 46.6112 39.7074 46.7731V46.7893V46.8055C39.6752 46.9511 39.6428 47.1129 39.6106 47.2585V47.3071C39.5784 47.4527 39.546 47.5983 39.5138 47.744C39.5138 47.7602 39.4976 47.7925 39.4976 47.8087C39.4654 47.9543 39.4331 48.1 39.3847 48.2456V48.2942C39.3363 48.456 39.2879 48.6016 39.2556 48.7472C39.2395 48.7634 39.2395 48.7796 39.2395 48.7796C39.1911 48.9414 39.1427 49.1032 39.0942 49.265C39.0297 49.4268 38.9813 49.5724 38.9168 49.7342C38.8522 49.896 38.8038 50.0578 38.7393 50.2035C38.6747 50.3653 38.6102 50.5109 38.5457 50.6727H38.5295C38.4649 50.8184 38.4004 50.9802 38.3197 51.1258C38.3036 51.1743 38.2875 51.2067 38.2713 51.2391C38.2552 51.2553 38.2552 51.2714 38.2391 51.2876C37.1903 53.4073 35.6413 55.2681 33.7051 56.7244C33.576 56.8053 33.447 56.9024 33.3179 56.9995C33.2856 57.0318 33.2372 57.048 33.2049 57.0804C33.092 57.1613 32.979 57.2422 32.85 57.3231L32.8984 57.4202H32.9145C33.1404 57.3879 33.3663 57.3554 33.5922 57.3231H33.6084C34.0279 57.2584 34.4474 57.1775 34.8669 57.0966C34.9798 57.0803 35.1089 57.048 35.2219 57.0157C35.3025 56.9994 35.3671 56.9833 35.4478 56.9671C35.5607 56.9509 35.6736 56.9186 35.7866 56.9024C35.8834 56.87 35.9802 56.8538 36.077 56.8215C37.6905 56.4331 39.2556 55.8991 40.7562 55.2681C38.1907 58.7794 34.7539 61.611 30.7363 63.4718C32.5919 63.3424 34.4474 63.035 36.2384 62.5172C42.7408 60.5916 48.2106 56.2066 51.486 50.3005C50.8244 54.0383 49.34 57.5981 47.1457 60.7049C48.7108 59.6693 50.1468 58.4719 51.4537 57.1127C55.068 53.3264 57.4398 48.5206 58.2466 43.3589C58.7951 45.9155 58.9565 48.553 58.7145 51.1581C70.364 34.8639 59.6826 17.971 55.2132 13.5212C55.197 13.4889 55.1809 13.4726 55.1809 13.4403C55.1647 13.4565 55.1647 13.4565 55.1647 13.4726C55.1647 13.4564 55.1647 13.4564 55.1486 13.4403C55.1486 13.6345 55.1324 13.8286 55.1163 14.0228C55.0679 14.395 55.0195 14.7509 54.955 15.1069C54.8743 15.4629 54.7775 15.8189 54.6807 16.1749C54.5678 16.5147 54.4387 16.8706 54.2935 17.2105C54.1482 17.5341 53.9869 17.8739 53.8094 18.1975C53.6319 18.5049 53.4383 18.8286 53.2285 19.1198C53.0188 19.4272 52.7929 19.7185 52.567 19.9936C52.325 20.2848 52.0668 20.5437 51.8087 20.8026C51.6473 20.9483 51.5021 21.0777 51.3407 21.2071C51.2117 21.3204 51.0987 21.4175 50.9696 21.5308C50.6792 21.7573 50.3888 21.9677 50.0661 22.1618C49.7595 22.356 49.4368 22.5502 49.1141 22.712C48.7753 22.8738 48.4364 23.0194 48.0976 23.165C47.7588 23.2945 47.4038 23.4078 47.0488 23.5049C46.6939 23.6019 46.3228 23.6828 45.9678 23.7476C45.5967 23.8123 45.2256 23.8446 44.8706 23.877C44.6124 23.8932 44.3543 23.9094 44.0961 23.9094C43.725 23.9094 43.3539 23.877 42.9989 23.8446C42.6278 23.8123 42.2567 23.7637 41.9018 23.6828C41.5306 23.618 41.1757 23.521 40.8207 23.4077H40.8046C41.1595 23.3754 41.5145 23.343 41.8695 23.2783C42.2406 23.2135 42.5955 23.1326 42.9505 23.0355C43.3055 22.9385 43.6604 22.8252 43.9993 22.6957C44.3543 22.5663 44.6931 22.4045 45.0158 22.2427C45.3546 22.0809 45.6612 21.9029 45.9839 21.7087C46.2905 21.4984 46.597 21.288 46.8875 21.0615C47.1779 20.8349 47.4522 20.5922 47.7103 20.3333C47.9846 20.0906 48.2267 19.8155 48.4687 19.5405C48.7107 19.2492 48.9366 18.9579 49.1464 18.6667C49.1786 18.6181 49.2109 18.5534 49.2432 18.5049C49.4045 18.246 49.5659 17.9871 49.7111 17.7282C49.8886 17.4046 50.0499 17.0809 50.1951 16.7412C50.3404 16.4014 50.4694 16.0615 50.5824 15.7056C50.6953 15.3658 50.776 15.0098 50.8567 14.6538C50.9212 14.2816 50.9858 13.9257 51.018 13.5697C51.0503 13.1975 51.0826 12.8254 51.0826 12.4694C51.0826 12.2105 51.0664 11.9516 51.0503 11.6927C51.0181 11.3205 50.9697 10.9645 50.9213 10.6086C50.8567 10.2364 50.7761 9.88043 50.6792 9.52444C50.5663 9.18464 50.4533 8.82866 50.3243 8.48886C50.1952 8.14906 50.0338 7.80926 49.8725 7.48564C49.695 7.16202 49.5175 6.8384 49.3239 6.53096C49.1141 6.22353 48.9044 5.93227 48.6785 5.64101C48.4365 5.36593 48.1944 5.09086 47.9363 4.81578C47.8072 4.68634 47.662 4.54071 47.5168 4.41126C46.7907 3.84492 46.0323 3.31095 45.274 2.82552C45.1611 2.76077 45.0643 2.71225 44.9513 2.66371C44.4188 2.32391 43.9186 2.14583 43.4184 1.98402Z" fill="#E0234E"/>
</svg>
