<svg width="31" height="64" viewBox="0 0 31 64" fill="none" xmlns="http://www.w3.org/2000/svg">
<g clip-path="url(#clip0_1_1873)">
<path d="M21.2077 7.13325C18.5097 3.94632 16.1865 0.709589 15.7119 0.0373468C15.6619 -0.0124489 15.587 -0.0124489 15.537 0.0373468C15.0623 0.709589 12.7391 3.94632 10.0412 7.13325C-13.1162 36.5376 13.6884 56.3813 13.6884 56.3813L13.9132 56.5306C14.1131 59.5932 14.6127 64 14.6127 64H15.6119H16.6112C16.6112 64 17.1108 59.618 17.3107 56.5306L17.5355 56.3565C17.5605 56.3565 44.365 36.5376 21.2077 7.13325ZM15.6119 55.933C15.6119 55.933 14.4128 54.9123 14.0881 54.3893V54.3397L15.537 22.3209C15.537 22.2213 15.6869 22.2213 15.6869 22.3209L17.1358 54.3397V54.3893C16.811 54.9123 15.6119 55.933 15.6119 55.933Z" fill="#00684A"/>
</g>
<defs>
<clipPath id="clip0_1_1873">
<rect width="29.7674" height="64" fill="white" transform="translate(0.616333)"/>
</clipPath>
</defs>
</svg>
