<svg width="65" height="64" viewBox="0 0 65 64" fill="none" xmlns="http://www.w3.org/2000/svg">
<g clip-path="url(#clip0_1_1865)">
<path d="M64.5202 31.295C64.3462 20.595 58.3802 10.177 49.1502 4.69099C41.8782 0.161987 32.6922 -1.05701 24.4182 1.03299C11.9652 4.16799 2.03723 15.446 0.77523 28.3C-0.792771 40.44 5.34723 53.066 15.8402 59.292C26.1162 65.736 40.0932 65.475 50.1402 58.692C59.1972 52.814 64.8142 42.092 64.5102 31.304L64.5202 31.295ZM34.3022 59.25C19.7592 60.687 5.69523 48.365 5.30223 33.778C4.20223 21.935 12.0072 10.222 23.1542 6.30299C38.7862 0.0329871 57.9882 11.615 59.5992 28.38C62.1252 43.444 49.5852 58.78 34.3022 59.25ZM24.7322 30.38L45.7622 13.18L34.3982 30.423C31.1762 30.423 27.9542 30.424 24.7322 30.38ZM30.6452 33.56L40.3112 33.604L19.2812 50.847L30.6452 33.56Z" fill="#F9FAFB"/>
</g>
<defs>
<clipPath id="clip0_1_1865">
<rect width="64" height="64" fill="white" transform="translate(0.532227)"/>
</clipPath>
</defs>
</svg>
